<svg width="20" height="20" viewBox="0 0 20 20" fill="none" xmlns="http://www.w3.org/2000/svg">
<path fill-rule="evenodd" clip-rule="evenodd" d="M3.99763 3.99762H11.5008C11.9151 3.99762 12.2511 4.33355 12.2511 4.74794V16.0026H3.99763C3.58324 16.0026 3.24731 15.6667 3.24731 15.2523V4.74794C3.24731 4.33355 3.58324 3.99762 3.99763 3.99762Z" stroke="#CED2DB" stroke-width="1.5" stroke-linecap="round" stroke-linejoin="round"/>
<path fill-rule="evenodd" clip-rule="evenodd" d="M12.251 6.99887H16.0025C16.4169 6.99887 16.7529 7.3348 16.7529 7.74918V15.2523C16.7529 15.6667 16.4169 16.0026 16.0025 16.0026H12.251V6.99887Z" stroke="#CED2DB" stroke-width="1.5" stroke-linecap="round" stroke-linejoin="round"/>
<path d="M6.24845 6.90509C6.19665 6.90509 6.15466 6.94708 6.15466 6.99887C6.15466 7.05067 6.19665 7.09266 6.24845 7.09266C6.30025 7.09266 6.34224 7.05067 6.34224 6.99887C6.34224 6.94708 6.30025 6.90509 6.24845 6.90509" stroke="#CED2DB" stroke-width="1.5" stroke-linecap="round" stroke-linejoin="round"/>
<path d="M9.24967 6.90509C9.19787 6.90509 9.15588 6.94708 9.15588 6.99887C9.15588 7.05067 9.19787 7.09266 9.24967 7.09266C9.30147 7.09266 9.34346 7.05067 9.34346 6.99887C9.34346 6.94708 9.30147 6.90509 9.24967 6.90509" stroke="#858FA6" stroke-width="1.5" stroke-linecap="round" stroke-linejoin="round"/>
<path d="M6.24845 9.90633C6.19665 9.90633 6.15466 9.94832 6.15466 10.0001C6.15466 10.0519 6.19665 10.0939 6.24845 10.0939C6.30025 10.0939 6.34224 10.0519 6.34224 10.0001C6.34224 9.94832 6.30025 9.90633 6.24845 9.90633" stroke="#858FA6" stroke-width="1.5" stroke-linecap="round" stroke-linejoin="round"/>
<path d="M9.24967 9.90633C9.19787 9.90633 9.15588 9.94832 9.15588 10.0001C9.15588 10.0519 9.19787 10.0939 9.24967 10.0939C9.30147 10.0939 9.34346 10.0519 9.34346 10.0001C9.34346 9.94832 9.30147 9.90633 9.24967 9.90633" stroke="#858FA6" stroke-width="1.5" stroke-linecap="round" stroke-linejoin="round"/>
<path d="M6.24845 12.9076C6.19665 12.9076 6.15466 12.9496 6.15466 13.0014C6.15466 13.0532 6.19665 13.0952 6.24845 13.0952C6.30025 13.0952 6.34224 13.0532 6.34224 13.0014C6.34224 12.9496 6.30025 12.9076 6.24845 12.9076" stroke="#858FA6" stroke-width="1.5" stroke-linecap="round" stroke-linejoin="round"/>
<path d="M9.24967 12.9076C9.19787 12.9076 9.15588 12.9496 9.15588 13.0014C9.15588 13.0532 9.19787 13.0952 9.24967 13.0952C9.30147 13.0952 9.34346 13.0532 9.34346 13.0014C9.34346 12.9496 9.30147 12.9076 9.24967 12.9076" stroke="#858FA6" stroke-width="1.5" stroke-linecap="round" stroke-linejoin="round"/>
<path d="M14.5019 9.90633C14.4501 9.90633 14.4081 9.94832 14.4081 10.0001C14.4081 10.0519 14.4501 10.0939 14.5019 10.0939C14.5537 10.0939 14.5957 10.0519 14.5957 10.0001C14.5957 9.94832 14.5537 9.90633 14.5019 9.90633" stroke="#858FA6" stroke-width="1.5" stroke-linecap="round" stroke-linejoin="round"/>
<path d="M14.5019 12.9076C14.4501 12.9076 14.4081 12.9496 14.4081 13.0014C14.4081 13.0532 14.4501 13.0952 14.5019 13.0952C14.5537 13.0952 14.5957 13.0532 14.5957 13.0014C14.5957 12.9496 14.5537 12.9076 14.5019 12.9076" stroke="#858FA6" stroke-width="1.5" stroke-linecap="round" stroke-linejoin="round"/>
</svg>
