<svg width="20" height="20" viewBox="0 0 20 20" fill="none" xmlns="http://www.w3.org/2000/svg">
<path d="M6.99878 16.7529V3.99762C6.99878 3.58323 7.33471 3.24731 7.74909 3.24731H12.251C12.6654 3.24731 13.0013 3.58323 13.0013 3.99762V16.7529" stroke="#CED2DB" stroke-width="1.5" stroke-linecap="round" stroke-linejoin="round"/>
<path d="M16.7528 16.7529V6.93359C16.7528 6.55526 16.4461 6.24856 16.0677 6.24856H13.0012" stroke="#CED2DB" stroke-width="1.5" stroke-linecap="round" stroke-linejoin="round"/>
<path d="M6.99888 6.24856H3.93235C3.55402 6.24856 3.24731 6.55526 3.24731 6.93359V16.7529" stroke="#CED2DB" stroke-width="1.5" stroke-linecap="round" stroke-linejoin="round"/>
<path d="M13.0012 8.49949H14.877" stroke="#B6BCC9" stroke-width="1.5" stroke-linecap="round" stroke-linejoin="round"/>
<path d="M13.0012 10.7504H14.877" stroke="#B6BCC9" stroke-width="1.5" stroke-linecap="round" stroke-linejoin="round"/>
<path d="M13.0012 13.0014H14.877" stroke="#B6BCC9" stroke-width="1.5" stroke-linecap="round" stroke-linejoin="round"/>
<path d="M5.12305 8.49949H6.99883" stroke="#B6BCC9" stroke-width="1.5" stroke-linecap="round" stroke-linejoin="round"/>
<path d="M5.12305 10.7504H6.99883" stroke="#B6BCC9" stroke-width="1.5" stroke-linecap="round" stroke-linejoin="round"/>
<path d="M5.12305 13.0014H6.99883" stroke="#B6BCC9" stroke-width="1.5" stroke-linecap="round" stroke-linejoin="round"/>
<path d="M8.87451 10.7504H11.1254" stroke="#B6BCC9" stroke-width="1.5" stroke-linecap="round" stroke-linejoin="round"/>
<path d="M8.87451 13.0014H11.1254" stroke="#B6BCC9" stroke-width="1.5" stroke-linecap="round" stroke-linejoin="round"/>
<path d="M8.87451 8.49949H11.1254" stroke="#B6BCC9" stroke-width="1.5" stroke-linecap="round" stroke-linejoin="round"/>
<path d="M8.87451 6.24855H11.1254" stroke="#B6BCC9" stroke-width="1.5" stroke-linecap="round" stroke-linejoin="round"/>
<path d="M10.0002 15.2523V16.7529" stroke="#B6BCC9" stroke-width="1.5" stroke-linecap="round" stroke-linejoin="round"/>
<path d="M17.5033 16.7529H2.49707" stroke="#B6BCC9" stroke-width="1.5" stroke-linecap="round" stroke-linejoin="round"/>
</svg>
