<svg width="20" height="20" viewBox="0 0 20 20" fill="none" xmlns="http://www.w3.org/2000/svg">
<path fill-rule="evenodd" clip-rule="evenodd" d="M3.99749 8.87453H13.0012C13.4156 8.87453 13.7516 9.21045 13.7516 9.62484V11.8758C13.7516 14.3621 11.736 16.3777 9.24968 16.3777H7.74905C5.26274 16.3777 3.24718 14.3621 3.24718 11.8758V9.62484C3.24718 9.21045 3.5831 8.87453 3.99749 8.87453Z" stroke="#9EA5B8" stroke-width="1.5" stroke-linecap="round" stroke-linejoin="round"/>
<path d="M11.1255 6.62359C10.6253 6.09837 10.6253 5.27303 11.1255 4.74781C11.6257 4.22259 11.6257 3.39724 11.1255 2.87202" stroke="#9EA5B8" stroke-width="1.5" stroke-linecap="round" stroke-linejoin="round"/>
<path d="M8.49938 6.62359C7.99917 6.09837 7.99917 5.27303 8.49938 4.74781C8.99958 4.22259 8.99958 3.39724 8.49938 2.87202" stroke="#9EA5B8" stroke-width="1.5" stroke-linecap="round" stroke-linejoin="round"/>
<path d="M5.87328 6.62359C5.37307 6.09837 5.37307 5.27302 5.87328 4.74781C6.37349 4.22259 6.37349 3.39724 5.87328 2.87202" stroke="#9EA5B8" stroke-width="1.5" stroke-linecap="round" stroke-linejoin="round"/>
<path d="M13.0971 14.213L14.482 13.896C15.8107 13.592 16.7528 12.4099 16.7528 11.047V11.047C16.7528 10.4708 16.5239 9.91822 16.1165 9.51082C15.7091 9.10341 15.1565 8.87453 14.5804 8.87453H12.6261" stroke="#9EA5B8" stroke-width="1.5" stroke-linecap="round" stroke-linejoin="round"/>
</svg>
