<svg width="18" height="18" viewBox="0 0 18 18" fill="none" xmlns="http://www.w3.org/2000/svg">
<path fill-rule="evenodd" clip-rule="evenodd" d="M16.5 4.875C16.5 4.04657 15.8284 3.375 15 3.375H13.5C13.3043 3.38326 13.1363 3.51691 13.0843 3.70575C12.9314 4.33831 12.3653 4.78393 11.7145 4.78392C11.0637 4.7839 10.4976 4.33827 10.3448 3.7057C10.2928 3.51688 10.1248 3.38325 9.9291 3.375H3C2.17157 3.375 1.5 4.04657 1.5 4.875V13.125C1.5 13.9534 2.17157 14.625 3 14.625H9.9291C10.1248 14.6167 10.2927 14.4831 10.3448 14.2943C10.4976 13.6617 11.0637 13.2161 11.7145 13.2161C12.3653 13.2161 12.9314 13.6617 13.0843 14.2943C13.1363 14.4831 13.3043 14.6167 13.5 14.625H15C15.8284 14.625 16.5 13.9534 16.5 13.125V4.875Z" stroke="#9EA5B8" stroke-width="1.5" stroke-linecap="round" stroke-linejoin="round"/>
<path d="M4.49999 9.75L5.16749 9.0195L4.49999 8.25" stroke="#9EA5B8" stroke-width="1.5" stroke-linecap="round" stroke-linejoin="round"/>
<path d="M6 10.875L7.55375 9.01625L6 7.125" stroke="#9EA5B8" stroke-width="1.5" stroke-linecap="round" stroke-linejoin="round"/>
<path d="M5.16751 9.0225L9.00001 9" stroke="#9EA5B8" stroke-width="1.5" stroke-linecap="round" stroke-linejoin="round"/>
<path d="M11.625 11.4375V11.0625" stroke="#9EA5B8" stroke-width="1.5" stroke-linecap="round" stroke-linejoin="round"/>
<path d="M11.625 9.1875V8.8125" stroke="#9EA5B8" stroke-width="1.5" stroke-linecap="round" stroke-linejoin="round"/>
<path d="M11.625 6.9375V6.5625" stroke="#9EA5B8" stroke-width="1.5" stroke-linecap="round" stroke-linejoin="round"/>
</svg>
