<svg width="18" height="20" viewBox="0 0 18 20" fill="none" xmlns="http://www.w3.org/2000/svg">
<path d="M9 9.25005C6.9471 9.25005 5.267 7.57072 5.267 5.51705H3.767C3.767 8.39937 6.1189 10.75 9 10.75V9.25005ZM5.267 5.51705C5.267 3.45599 6.95445 1.75005 9 1.75005V0.250046C6.11155 0.250046 3.767 2.6421 3.767 5.51705H5.267ZM9 1.75005C11.0529 1.75005 12.733 3.42937 12.733 5.48305H14.233C14.233 2.60072 11.8811 0.250046 9 0.250046V1.75005ZM12.733 5.48305C12.733 7.5441 11.0456 9.25005 9 9.25005V10.75C11.8884 10.75 14.233 8.35799 14.233 5.48305H12.733ZM16 18.25H2V19.75H16V18.25ZM2 18.25C1.86421 18.25 1.75 18.1358 1.75 18H0.25C0.25 18.9643 1.03579 19.75 2 19.75V18.25ZM1.75 18V17H0.25V18H1.75ZM1.75 17C1.75 15.2143 3.21421 13.75 5 13.75V12.25C2.38579 12.25 0.25 14.3858 0.25 17H1.75ZM5 13.75H13V12.25H5V13.75ZM13 13.75C14.7858 13.75 16.25 15.2143 16.25 17H17.75C17.75 14.3858 15.6142 12.25 13 12.25V13.75ZM16.25 17V18H17.75V17H16.25ZM16.25 18C16.25 18.1358 16.1358 18.25 16 18.25V19.75C16.9642 19.75 17.75 18.9643 17.75 18H16.25Z" fill="#4070F4"/>
</svg>
