<svg width="44" height="44" viewBox="0 0 44 44" fill="none" xmlns="http://www.w3.org/2000/svg">
<path d="M13 15H31" stroke="#4070F4" stroke-width="1.5" stroke-linecap="round" stroke-linejoin="round"/>
<path d="M13 22H31" stroke="#4070F4" stroke-width="1.5" stroke-linecap="round" stroke-linejoin="round"/>
<path d="M13 29H31" stroke="#4070F4" stroke-width="1.5" stroke-linecap="round" stroke-linejoin="round"/>
<path d="M2 0.8H42V-0.8H2V0.8ZM43.2 2V42H44.8V2H43.2ZM42 43.2H2V44.8H42V43.2ZM0.8 42V2H-0.8V42H0.8ZM2 43.2C1.33726 43.2 0.8 42.6627 0.8 42H-0.8C-0.8 43.5464 0.453604 44.8 2 44.8V43.2ZM43.2 42C43.2 42.6627 42.6627 43.2 42 43.2V44.8C43.5464 44.8 44.8 43.5464 44.8 42H43.2ZM42 0.8C42.6627 0.8 43.2 1.33726 43.2 2H44.8C44.8 0.453602 43.5464 -0.8 42 -0.8V0.8ZM2 -0.8C0.453602 -0.8 -0.8 0.453604 -0.8 2H0.8C0.8 1.33726 1.33726 0.8 2 0.8V-0.8Z" fill="#4070F4"/>
</svg>
