<svg width="177" height="39" viewBox="0 0 177 39" fill="none" xmlns="http://www.w3.org/2000/svg">
<g clip-path="url(#clip0_35_2397)">
<path d="M26.9221 30.4739L3.9121 14.6016C1.58031 12.9932 2.37297 9.64427 5.28064 8.85675L29.7361 2.21925C30.2542 2.03232 30.8093 1.97164 31.3556 2.04225C31.9017 2.11286 32.4232 2.31271 32.8767 2.62523C33.3301 2.93776 33.7026 3.35392 33.963 3.8392C34.2233 4.32447 34.3643 4.86486 34.3741 5.41551L32.9247 27.924C32.7528 30.5957 29.2539 32.0823 26.9221 30.4739Z" fill="white"/>
<path opacity="0.5" d="M16.7778 33.6651L8.6048 5.03368C8.41806 4.37873 8.41585 3.68492 8.59838 3.02878C8.78091 2.37265 9.14111 1.77966 9.63924 1.31523C10.1374 0.85081 10.7541 0.532971 11.4214 0.396776C12.0887 0.260581 12.7807 0.311324 13.4209 0.543415L37.3193 9.20616C37.8694 9.40561 38.3644 9.73281 38.7636 10.1609C39.1627 10.5889 39.4544 11.1056 39.615 11.6684C39.7755 12.2312 39.8002 12.8241 39.6869 13.3983C39.5736 13.9724 39.3256 14.5115 38.9635 14.9712L23.2318 34.9386C22.81 35.4718 22.2492 35.8784 21.6113 36.1136C20.9734 36.349 20.2831 36.4038 19.616 36.2721C18.949 36.1405 18.3311 35.8276 17.8304 35.3677C17.3296 34.9076 16.9654 34.3186 16.7778 33.6651Z" fill="white"/>
<path d="M97.7463 9.40693C97.7463 8.94143 97.8844 8.4864 98.1429 8.09935C98.4016 7.71231 98.7692 7.41064 99.1993 7.2325C99.6293 7.05437 100.102 7.00776 100.559 7.09857C101.016 7.18939 101.435 7.41355 101.764 7.74269C102.093 8.07185 102.317 8.49122 102.408 8.94777C102.499 9.40432 102.452 9.87756 102.274 10.3076C102.096 10.7377 101.795 11.1053 101.408 11.3639C101.02 11.6225 100.565 11.7605 100.1 11.7605C99.4776 11.7542 98.8827 11.5042 98.4427 11.0642C98.0027 10.6241 97.7526 10.0292 97.7463 9.40693ZM98.1388 12.911H102.062V25.9859H98.1388V12.911Z" fill="white"/>
<path d="M119.006 19.4486C119.051 20.3128 118.925 21.1775 118.636 21.993C118.346 22.8083 117.898 23.5585 117.317 24.2002C116.736 24.8418 116.034 25.3623 115.252 25.7318C114.469 26.1012 113.621 26.3123 112.757 26.3528C112.03 26.3923 111.303 26.2697 110.629 25.9938C109.955 25.7178 109.351 25.2955 108.86 24.7573V31.2165H104.938V12.9111H108.86V14.1398C109.351 13.6018 109.955 13.1797 110.629 12.9039C111.303 12.6282 112.03 12.5058 112.757 12.5455C113.621 12.5859 114.469 12.7968 115.252 13.1661C116.034 13.5355 116.736 14.0558 117.317 14.6974C117.898 15.3389 118.346 16.0889 118.636 16.9044C118.925 17.7197 119.051 18.5843 119.006 19.4486ZM115.083 19.4486C115.068 18.8364 114.872 18.2424 114.521 17.7408C114.17 17.2393 113.678 16.8524 113.108 16.6289C112.538 16.4052 111.915 16.3548 111.316 16.4837C110.718 16.6126 110.17 16.9151 109.743 17.3535C109.315 17.7919 109.026 18.3468 108.913 18.9485C108.799 19.5501 108.865 20.1721 109.103 20.7363C109.341 21.3005 109.74 21.782 110.25 22.1206C110.761 22.4592 111.359 22.6397 111.972 22.6397C112.392 22.6587 112.812 22.5884 113.203 22.4337C113.595 22.2789 113.949 22.043 114.243 21.7417C114.537 21.4403 114.764 21.0803 114.908 20.685C115.053 20.2898 115.113 19.8684 115.083 19.4486Z" fill="white"/>
<path d="M131.112 22.0613C131.112 25.069 128.497 26.3503 125.673 26.3503C124.532 26.4536 123.386 26.2121 122.384 25.6571C121.382 25.1022 120.569 24.2593 120.051 23.2374L123.45 21.3033C123.588 21.7756 123.884 22.1862 124.289 22.4663C124.693 22.7465 125.182 22.8792 125.673 22.8424C126.614 22.8424 127.084 22.5538 127.084 22.0318C127.084 20.5927 120.651 21.352 120.651 16.827C120.651 13.977 123.056 12.5392 125.782 12.5392C126.804 12.5071 127.816 12.7497 128.712 13.2417C129.61 13.7337 130.358 14.4571 130.88 15.3366L127.534 17.1412C127.387 16.798 127.143 16.5054 126.832 16.3002C126.52 16.0948 126.155 15.9859 125.782 15.9868C125.102 15.9868 124.684 16.2434 124.684 16.7192C124.68 18.2199 131.112 17.2258 131.112 22.0613Z" fill="white"/>
<path d="M145.448 12.9108V25.9857H141.526V24.7544C141.073 25.2968 140.497 25.7242 139.847 26.0016C139.198 26.2789 138.491 26.3983 137.786 26.3499C135.145 26.3499 132.896 24.4671 132.896 20.936V12.9108H136.818V20.364C136.785 20.6757 136.821 20.9908 136.922 21.2874C137.024 21.5839 137.188 21.8549 137.405 22.0814C137.621 22.3079 137.884 22.4844 138.175 22.5987C138.468 22.7131 138.781 22.7624 139.094 22.7432C140.532 22.7432 141.531 21.907 141.531 20.0498V12.9108H145.448Z" fill="white"/>
<path d="M167.929 17.9565V25.9856H164.007V18.2976C164.007 16.9907 163.379 16.1531 162.124 16.1531C160.816 16.1531 160.085 17.0689 160.085 18.6119V25.9856H156.161V18.2976C156.161 16.9907 155.534 16.1531 154.279 16.1531C152.972 16.1531 152.239 17.0689 152.239 18.6119V25.9856H148.317V12.9107H152.246V14.1086C152.652 13.5752 153.186 13.1522 153.798 12.8781C154.409 12.6041 155.081 12.4879 155.75 12.54C156.421 12.5072 157.09 12.6488 157.69 12.9512C158.291 13.2535 158.802 13.7062 159.176 14.2651C159.61 13.6804 160.186 13.2153 160.849 12.9136C161.512 12.6119 162.242 12.4834 162.968 12.54C165.97 12.5451 167.929 14.6884 167.929 17.9565Z" fill="white"/>
<path d="M171.253 12.83C172.861 12.83 174.164 11.5265 174.164 9.91848C174.164 8.3105 172.861 7.00696 171.253 7.00696C169.644 7.00696 168.341 8.3105 168.341 9.91848C168.341 11.5265 169.644 12.83 171.253 12.83Z" fill="white"/>
<path d="M44.1948 6.89673H48.1183V25.9859H44.1948V6.89673ZM50.3398 19.4484C50.3356 18.0776 50.7381 16.7363 51.4965 15.5945C52.2549 14.4526 53.3351 13.5615 54.6002 13.0339C55.8655 12.5064 57.2587 12.3661 58.6038 12.6309C59.9487 12.8957 61.1849 13.5535 62.1557 14.5214C63.1265 15.4891 63.7883 16.7231 64.0573 18.0673C64.3263 19.4115 64.1904 20.8051 63.6669 22.072C63.1433 23.3388 62.2556 24.4218 61.1161 25.1838C59.9767 25.9458 58.6367 26.3527 57.2659 26.3527C56.3555 26.3623 55.4523 26.1906 54.609 25.8473C53.7658 25.5041 52.9993 24.9962 52.3545 24.3535C51.7096 23.7106 51.1994 22.9458 50.8535 22.1037C50.5076 21.2615 50.333 20.3588 50.3398 19.4484ZM60.2775 19.4484C60.2621 18.857 60.0727 18.2834 59.733 17.7992C59.3933 17.315 58.9184 16.9417 58.3676 16.7259C57.8168 16.5103 57.2147 16.4617 56.6365 16.5865C56.0583 16.7112 55.5297 17.0038 55.1169 17.4273C54.704 17.8509 54.4253 18.3868 54.3154 18.9679C54.2056 19.5492 54.2695 20.1499 54.4993 20.695C54.729 21.2399 55.1144 21.7052 55.6072 22.0323C56.1 22.3595 56.6783 22.5341 57.2697 22.5344C57.6748 22.5459 58.0779 22.4733 58.4535 22.3213C58.8291 22.1695 59.1692 21.9413 59.4522 21.6513C59.7353 21.3614 59.9553 21.016 60.0981 20.6369C60.241 20.2576 60.3039 19.8529 60.2826 19.4484H60.2775ZM79.8359 12.9071V25.3292C79.8359 29.7221 76.4101 31.578 72.933 31.578C71.7091 31.6704 70.4833 31.424 69.39 30.8658C68.2968 30.3077 67.3784 29.4593 66.7354 28.4138L70.0817 26.4784C70.3518 27.024 70.7821 27.4742 71.3151 27.7688C71.848 28.0633 72.458 28.1881 73.0638 28.1265C73.4505 28.1793 73.844 28.1446 74.2154 28.025C74.5869 27.9053 74.9266 27.7039 75.2098 27.4353C75.4929 27.1669 75.7121 26.8383 75.8513 26.4736C75.9904 26.1091 76.046 25.7179 76.0138 25.3292V24.1261C75.5543 24.6879 74.9696 25.1342 74.3066 25.4293C73.6435 25.7245 72.9205 25.8602 72.1954 25.8255C70.4697 25.7718 68.8325 25.0485 67.6306 23.8088C66.4288 22.569 65.7568 20.9102 65.7568 19.1835C65.7568 17.4568 66.4288 15.798 67.6306 14.5582C68.8325 13.3184 70.4697 12.5951 72.1954 12.5415C72.9205 12.5068 73.6435 12.6425 74.3066 12.9376C74.9696 13.2328 75.5543 13.6791 76.0138 14.241V12.9071H79.8359ZM76.0189 19.1829C76.0448 18.5513 75.8812 17.9266 75.5491 17.3888C75.217 16.851 74.7317 16.4248 74.1554 16.1651C73.5793 15.9053 72.9385 15.8239 72.3156 15.9312C71.6928 16.0386 71.1163 16.3297 70.6602 16.7674C70.2041 17.205 69.8893 17.769 69.7564 18.3868C69.6234 19.0047 69.6783 19.6482 69.9141 20.2348C70.1497 20.8212 70.5555 21.3237 71.0791 21.6777C71.6026 22.0317 72.2202 22.221 72.8521 22.2214C73.2642 22.2503 73.6779 22.1927 74.0664 22.0522C74.4549 21.9118 74.8097 21.6916 75.108 21.4057C75.4062 21.1199 75.6414 20.7747 75.7983 20.3927C75.9552 20.0104 76.0303 19.5996 76.0189 19.1868V19.1829ZM82.0574 19.4394C82.0532 18.0686 82.4557 16.7273 83.2141 15.5856C83.9725 14.4437 85.0527 13.5525 86.3179 13.025C87.5832 12.4974 88.9763 12.3571 90.3214 12.6219C91.6663 12.8867 92.9024 13.5446 93.8733 14.5124C94.8441 15.4801 95.506 16.7141 95.7749 18.0583C96.0439 19.4025 95.9081 20.7962 95.3845 22.063C94.8609 23.3298 93.9732 24.4129 92.8338 25.1749C91.6943 25.9369 90.3544 26.3437 88.9835 26.3437C88.0739 26.3533 87.1714 26.1818 86.3288 25.8391C85.4861 25.4965 84.72 24.9894 84.0754 24.3476C83.4306 23.7058 82.9202 22.9421 82.5738 22.1008C82.2272 21.2597 82.0518 20.358 82.0574 19.4484V19.4394ZM91.9951 19.4394C91.9799 18.8478 91.7906 18.2737 91.451 17.789C91.1112 17.3044 90.636 16.9308 90.085 16.7148C89.5339 16.4988 88.9314 16.4502 88.3529 16.575C87.7743 16.6996 87.2453 16.9923 86.8323 17.4161C86.4192 17.84 86.1402 18.3763 86.0304 18.9578C85.9205 19.5393 85.9846 20.1405 86.2146 20.6857C86.4447 21.2311 86.8304 21.6964 87.3236 22.0238C87.8169 22.3509 88.3956 22.5254 88.9874 22.5254C89.3913 22.536 89.7928 22.4633 90.1672 22.3116C90.5416 22.1598 90.8806 21.9323 91.1631 21.6435C91.4454 21.3546 91.6651 21.0105 91.8082 20.6328C91.9515 20.255 92.0151 19.8518 91.9951 19.4484V19.4394Z" fill="white"/>
</g>
<defs>
<clipPath id="clip0_35_2397">
<rect width="177" height="38.4783" fill="white"/>
</clipPath>
</defs>
</svg>
