<svg width="136" height="31" viewBox="0 0 136 31" fill="none" xmlns="http://www.w3.org/2000/svg">
<g clip-path="url(#clip0_21_1650)">
<path opacity="0.5" d="M15.9621 27.2145L3.97591 7.80325C3.70188 7.35917 3.55584 6.84802 3.55386 6.3262C3.55188 5.80438 3.69407 5.29215 3.96471 4.846C4.23536 4.39986 4.62397 4.03712 5.08768 3.79779C5.55139 3.55847 6.07218 3.45186 6.59263 3.48973L26.0181 4.90318C26.4652 4.93574 26.8984 5.07398 27.2818 5.30654C27.6652 5.53911 27.9879 5.85936 28.2234 6.24095C28.4589 6.62255 28.6005 7.05459 28.6365 7.50156C28.6724 7.94853 28.6018 8.39767 28.4304 8.81202L20.9863 26.8102C20.7862 27.2912 20.4574 27.7077 20.0359 28.014C19.6145 28.3203 19.1169 28.5043 18.5976 28.5461C18.0783 28.5879 17.5576 28.4858 17.0926 28.2509C16.6276 28.0159 16.2365 27.6573 15.9621 27.2145Z" fill="#2BD67B"/>
<path d="M20.6278 24.1081L2.99748 11.9467C1.21086 10.7143 1.81819 8.14839 4.04606 7.54499L22.7839 2.45933C23.1808 2.31611 23.6061 2.26962 24.0247 2.32372C24.4431 2.37782 24.8427 2.53095 25.1902 2.7704C25.5376 3.00985 25.823 3.32872 26.0225 3.70054C26.222 4.07236 26.33 4.4864 26.3375 4.90831L25.227 22.1544C25.0953 24.2014 22.4144 25.3404 20.6278 24.1081Z" fill="#0A2156"/>
<path d="M12.8552 26.5532L6.59308 4.61577C6.45 4.11395 6.44831 3.58235 6.58816 3.07962C6.72802 2.57688 7.00401 2.12254 7.38567 1.76669C7.76735 1.41085 8.23988 1.16732 8.75117 1.06297C9.26245 0.958618 9.79262 0.997497 10.2832 1.17533L28.5941 7.81274C29.0157 7.96555 29.3949 8.21625 29.7008 8.54423C30.0066 8.87221 30.2301 9.26807 30.3532 9.69931C30.4761 10.1305 30.495 10.5848 30.4082 11.0247C30.3214 11.4646 30.1314 11.8777 29.8539 12.2299L17.8003 27.5289C17.4771 27.9375 17.0475 28.2491 16.5587 28.4293C16.0699 28.6096 15.541 28.6516 15.0299 28.5507C14.5188 28.4499 14.0454 28.2101 13.6617 27.8577C13.2781 27.5052 12.999 27.0539 12.8552 26.5532Z" fill="#4070F4"/>
<path d="M74.8933 7.96647C74.8933 7.6098 74.9991 7.26116 75.1972 6.9646C75.3954 6.66804 75.677 6.43691 76.0066 6.30041C76.3361 6.16393 76.6986 6.12822 77.0485 6.1978C77.3982 6.26738 77.7196 6.43914 77.9717 6.69133C78.224 6.94353 78.3957 7.26485 78.4653 7.61466C78.5348 7.96447 78.4992 8.32706 78.3627 8.65657C78.2262 8.98608 77.995 9.26773 77.6985 9.46588C77.4019 9.66402 77.0533 9.76979 76.6966 9.76979C76.2198 9.76493 75.764 9.57338 75.4268 9.23624C75.0898 8.89909 74.8981 8.44323 74.8933 7.96647ZM75.194 10.6513H78.2002V20.6693H75.194V10.6513Z" fill="#0A2156"/>
<path d="M91.1822 15.6604C91.2172 16.3226 91.1208 16.9852 90.8988 17.61C90.6767 18.2347 90.3333 18.8095 89.8884 19.3012C89.4435 19.7927 88.9057 20.1915 88.306 20.4747C87.7064 20.7577 87.0567 20.9195 86.3943 20.9505C85.8372 20.9808 85.2803 20.8868 84.7639 20.6754C84.2475 20.464 83.7847 20.1403 83.4088 19.728V24.677H80.4036V10.6514H83.4088V11.5929C83.7848 11.1806 84.2476 10.8572 84.7641 10.6459C85.2804 10.4347 85.8373 10.3409 86.3943 10.3713C87.0567 10.4023 87.7063 10.5639 88.3059 10.8468C88.9056 11.1298 89.4434 11.5285 89.8883 12.0201C90.3333 12.5117 90.6767 13.0863 90.8988 13.7111C91.1208 14.3358 91.2172 14.9983 91.1822 15.6604ZM88.177 15.6604C88.1652 15.1914 88.0153 14.7363 87.7462 14.3519C87.477 13.9677 87.1004 13.6713 86.6637 13.5C86.2269 13.3286 85.7493 13.29 85.2906 13.3887C84.832 13.4875 84.4125 13.7193 84.085 14.0552C83.7574 14.3911 83.5362 14.8163 83.4491 15.2773C83.3619 15.7383 83.4127 16.2148 83.595 16.6471C83.7773 17.0794 84.083 17.4483 84.474 17.7078C84.865 17.9672 85.3237 18.1055 85.7929 18.1055C86.1151 18.12 86.4367 18.0662 86.7366 17.9477C87.0365 17.829 87.308 17.6483 87.5331 17.4175C87.7583 17.1865 87.932 16.9107 88.0431 16.6078C88.154 16.305 88.1997 15.9821 88.177 15.6604Z" fill="#0A2156"/>
<path d="M100.458 17.6623C100.458 19.9668 98.4545 20.9485 96.2906 20.9485C95.4165 21.0276 94.5386 20.8426 93.7707 20.4174C93.0028 19.9922 92.3802 19.3464 91.9833 18.5634L94.5875 17.0815C94.6935 17.4434 94.9203 17.758 95.2303 17.9726C95.5403 18.1872 95.9146 18.2889 96.2906 18.2607C97.0119 18.2607 97.3716 18.0396 97.3716 17.6396C97.3716 16.537 92.4432 17.1188 92.4432 13.6517C92.4432 11.4681 94.2858 10.3664 96.3741 10.3664C97.1575 10.3418 97.933 10.5277 98.6196 10.9047C99.3075 11.2816 99.8804 11.8359 100.28 12.5098L97.7166 13.8925C97.6044 13.6295 97.4173 13.4053 97.1786 13.2481C96.9398 13.0908 96.66 13.0073 96.3741 13.008C95.8533 13.008 95.5329 13.2046 95.5329 13.5692C95.53 14.719 100.458 13.9573 100.458 17.6623Z" fill="#0A2156"/>
<path d="M111.442 10.6512V20.6693H108.437V19.7258C108.09 20.1414 107.649 20.4689 107.151 20.6814C106.653 20.8939 106.112 20.9854 105.571 20.9484C103.548 20.9484 101.825 19.5057 101.825 16.8002V10.6512H104.83V16.3619C104.805 16.6007 104.832 16.8422 104.91 17.0694C104.988 17.2966 105.113 17.5043 105.28 17.6778C105.446 17.8514 105.647 17.9866 105.87 18.0741C106.094 18.1618 106.334 18.1995 106.574 18.1849C107.675 18.1849 108.441 17.5442 108.441 16.1212V10.6512H111.442Z" fill="#0A2156"/>
<path d="M128.668 14.5171V20.6691H125.663V14.7785C125.663 13.7771 125.181 13.1354 124.22 13.1354C123.218 13.1354 122.657 13.8371 122.657 15.0193V20.6691H119.651V14.7785C119.651 13.7771 119.171 13.1354 118.209 13.1354C117.207 13.1354 116.646 13.8371 116.646 15.0193V20.6691H113.641V10.651H116.651V11.5689C116.962 11.1602 117.371 10.8361 117.84 10.6261C118.309 10.4162 118.824 10.3271 119.336 10.367C119.85 10.3419 120.363 10.4504 120.823 10.6821C121.283 10.9137 121.675 11.2605 121.961 11.6888C122.294 11.2408 122.735 10.8844 123.243 10.6533C123.751 10.4221 124.31 10.3236 124.867 10.367C127.166 10.371 128.668 12.0131 128.668 14.5171Z" fill="#0A2156"/>
<path d="M131.214 10.5893C132.446 10.5893 133.445 9.59054 133.445 8.3585C133.445 7.12646 132.446 6.12769 131.214 6.12769C129.982 6.12769 128.983 7.12646 128.983 8.3585C128.983 9.59054 129.982 10.5893 131.214 10.5893Z" fill="#0A2156"/>
<path d="M33.8621 6.04321H36.8682V20.6693H33.8621V6.04321ZM38.5704 15.6603C38.5671 14.61 38.8755 13.5823 39.4566 12.7075C40.0377 11.8326 40.8653 11.1498 41.8347 10.7456C42.8042 10.3413 43.8716 10.2339 44.9022 10.4367C45.9327 10.6396 46.8799 11.1437 47.6237 11.8852C48.3675 12.6267 48.8746 13.5722 49.0807 14.6021C49.2868 15.632 49.1827 16.6999 48.7816 17.6705C48.3804 18.6412 47.7003 19.471 46.8272 20.0548C45.9541 20.6387 44.9275 20.9504 43.8771 20.9504C43.1796 20.9578 42.4875 20.8262 41.8414 20.5632C41.1953 20.3002 40.6081 19.9111 40.114 19.4186C39.6199 18.9261 39.229 18.34 38.9639 17.6948C38.6989 17.0495 38.5651 16.3579 38.5704 15.6603ZM46.1846 15.6603C46.1728 15.2072 46.0277 14.7677 45.7674 14.3967C45.5072 14.0257 45.1433 13.7397 44.7213 13.5744C44.2992 13.4092 43.8379 13.3719 43.3949 13.4675C42.9519 13.5631 42.5469 13.7872 42.2306 14.1117C41.9142 14.4363 41.7007 14.8469 41.6164 15.2922C41.5323 15.7376 41.5813 16.1978 41.7574 16.6154C41.9334 17.033 42.2287 17.3894 42.6063 17.6401C42.9838 17.8908 43.4269 18.0246 43.8801 18.0248C44.1904 18.0336 44.4993 17.978 44.787 17.8616C45.0749 17.7452 45.3354 17.5704 45.5523 17.3482C45.7692 17.1261 45.9377 16.8614 46.0472 16.5709C46.1567 16.2803 46.2048 15.9703 46.1885 15.6603H46.1846ZM61.1703 10.6484V20.1662C61.1703 23.532 58.5454 24.9541 55.8812 24.9541C54.9435 25.0248 54.0043 24.836 53.1666 24.4083C52.3291 23.9808 51.6253 23.3307 51.1327 22.5296L53.6966 21.0467C53.9036 21.4648 54.2333 21.8097 54.6416 22.0354C55.05 22.2611 55.5173 22.3567 55.9815 22.3095C56.2778 22.3499 56.5793 22.3234 56.8639 22.2317C57.1485 22.14 57.4088 21.9857 57.6258 21.7799C57.8427 21.5742 58.0106 21.3225 58.1173 21.0431C58.2239 20.7638 58.2664 20.464 58.2418 20.1662V19.2444C57.8898 19.6748 57.4417 20.0168 56.9338 20.2429C56.4257 20.469 55.8717 20.573 55.3162 20.5465C53.9939 20.5053 52.7394 19.9511 51.8186 19.0012C50.8978 18.0513 50.3828 16.7803 50.3828 15.4574C50.3828 14.1343 50.8978 12.8634 51.8186 11.9134C52.7394 10.9635 53.9939 10.4093 55.3162 10.3682C55.8717 10.3417 56.4257 10.4456 56.9338 10.6718C57.4417 10.8979 57.8898 11.2399 58.2418 11.6704V10.6484H61.1703ZM58.2457 15.4569C58.2656 14.973 58.1402 14.4943 57.8857 14.0822C57.6313 13.6702 57.2594 13.3436 56.8179 13.1446C56.3765 12.9456 55.8855 12.8832 55.4083 12.9655C54.931 13.0477 54.4893 13.2708 54.1398 13.6061C53.7904 13.9414 53.5492 14.3735 53.4474 14.8469C53.3455 15.3204 53.3876 15.8134 53.5682 16.2628C53.7487 16.7121 54.0596 17.0972 54.4608 17.3684C54.862 17.6397 55.3351 17.7847 55.8193 17.785C56.1351 17.8071 56.452 17.763 56.7497 17.6554C57.0474 17.5478 57.3192 17.379 57.5478 17.16C57.7763 16.941 57.9565 16.6766 58.0767 16.3838C58.1969 16.091 58.2545 15.7762 58.2457 15.4598V15.4569ZM62.8724 15.6534C62.8692 14.6031 63.1776 13.5754 63.7587 12.7006C64.3398 11.8257 65.1674 11.1429 66.1368 10.7387C67.1063 10.3345 68.1737 10.227 69.2043 10.4299C70.2348 10.6327 71.1819 11.1368 71.9258 11.8784C72.6696 12.6198 73.1767 13.5653 73.3828 14.5952C73.5889 15.6251 73.4848 16.693 73.0837 17.6636C72.6825 18.6343 72.0023 19.4641 71.1293 20.0479C70.2562 20.6318 69.2296 20.9435 68.1792 20.9435C67.4823 20.9509 66.7908 20.8195 66.1451 20.5569C65.4995 20.2944 64.9125 19.9058 64.4186 19.4141C63.9246 18.9223 63.5335 18.3372 63.2681 17.6926C63.0026 17.0481 62.8681 16.3573 62.8724 15.6603V15.6534ZM70.4867 15.6534C70.4751 15.2001 70.33 14.7602 70.0698 14.3889C69.8095 14.0176 69.4454 13.7313 69.0232 13.5658C68.6009 13.4003 68.1393 13.3631 67.696 13.4587C67.2527 13.5542 66.8474 13.7785 66.531 14.1032C66.2144 14.428 66.0007 14.8389 65.9166 15.2844C65.8323 15.73 65.8815 16.1906 66.0577 16.6084C66.234 17.0262 66.5295 17.3828 66.9074 17.6336C67.2853 17.8843 67.7287 18.0179 68.1822 18.0179C68.4916 18.0261 68.7993 17.9703 69.0862 17.8541C69.373 17.7378 69.6328 17.5635 69.8492 17.3422C70.0655 17.1209 70.2338 16.8572 70.3435 16.5678C70.4533 16.2784 70.502 15.9694 70.4867 15.6603V15.6534Z" fill="#0A2156"/>
</g>
<defs>
<clipPath id="clip0_21_1650">
<rect width="135.618" height="29.4821" fill="white" transform="translate(0 0.758972)"/>
</clipPath>
</defs>
</svg>
