<svg width="18" height="21" viewBox="0 0 18 21" fill="none" xmlns="http://www.w3.org/2000/svg">
<path d="M9 9.75C6.9471 9.75 5.267 8.07068 5.267 6.017H3.767C3.767 8.89932 6.1189 11.25 9 11.25V9.75ZM5.267 6.017C5.267 3.95594 6.95445 2.25 9 2.25V0.75C6.11155 0.75 3.767 3.14206 3.767 6.017H5.267ZM9 2.25C11.0529 2.25 12.733 3.92932 12.733 5.983H14.233C14.233 3.10068 11.8811 0.75 9 0.75V2.25ZM12.733 5.983C12.733 8.04406 11.0456 9.75 9 9.75V11.25C11.8884 11.25 14.233 8.85794 14.233 5.983H12.733ZM16 18.75H2V20.25H16V18.75ZM2 18.75C1.86421 18.75 1.75 18.6358 1.75 18.5H0.25C0.25 19.4642 1.03579 20.25 2 20.25V18.75ZM1.75 18.5V17.5H0.25V18.5H1.75ZM1.75 17.5C1.75 15.7142 3.21421 14.25 5 14.25V12.75C2.38579 12.75 0.25 14.8858 0.25 17.5H1.75ZM5 14.25H13V12.75H5V14.25ZM13 14.25C14.7858 14.25 16.25 15.7142 16.25 17.5H17.75C17.75 14.8858 15.6142 12.75 13 12.75V14.25ZM16.25 17.5V18.5H17.75V17.5H16.25ZM16.25 18.5C16.25 18.6358 16.1358 18.75 16 18.75V20.25C16.9642 20.25 17.75 19.4642 17.75 18.5H16.25Z" fill="#4070F4"/>
</svg>
